<svg width="105" height="103" viewBox="0 0 105 103" fill="none" xmlns="http://www.w3.org/2000/svg">
<g id="bg-pattern-quotation.svg" clip-path="url(#clip0_2_184)">
<path id="Vector" d="M104.596 102.25V59.977H84.7102C84.7102 54.106 85.3992 48.795 86.7782 44.044C88.1572 39.294 90.1982 34.757 92.9032 30.434C95.6062 26.11 99.5052 22.507 104.596 19.625V0.25C94.8382 4.52 86.8842 10.124 80.7322 17.063C74.5812 24.002 70.0202 31.608 67.0512 39.881C64.0812 48.154 62.5962 60.191 62.5962 75.99V102.25H104.596ZM42.5962 102.25V59.977H22.7102C22.7102 54.106 23.3992 48.795 24.7782 44.044C26.1572 39.294 28.1982 34.757 30.9032 30.434C33.6062 26.11 37.5052 22.507 42.5962 19.625V0.25C32.9442 4.52 25.0162 10.124 18.8122 17.063C12.6062 24.002 8.02019 31.608 5.05119 39.881C2.08119 48.154 0.596191 60.191 0.596191 75.99V102.25H42.5962Z" fill="#A775F1"/>
</g>
<defs>
<clipPath id="clip0_2_184">
<rect width="104" height="102" fill="white" transform="translate(0.596191 0.25)"/>
</clipPath>
</defs>
</svg>
